<svg width="16" height="16" viewBox="0 0 16 16" fill="none" xmlns="http://www.w3.org/2000/svg">
<path d="M9.02933 6.97066C8.48326 6.42482 7.74277 6.11819 6.97067 6.11819C6.19857 6.11819 5.45807 6.42482 4.912 6.97066L2.85267 9.02933C2.30659 9.57541 1.9998 10.3161 1.9998 11.0883C1.9998 11.8606 2.30659 12.6013 2.85267 13.1473C3.39875 13.6934 4.13939 14.0002 4.91167 14.0002C5.68394 14.0002 6.42459 13.6934 6.97067 13.1473L8 12.118" stroke="white" stroke-width="2" stroke-linecap="round" stroke-linejoin="round"/>
<path d="M6.97067 9.02933C7.51674 9.57518 8.25724 9.88181 9.02934 9.88181C9.80144 9.88181 10.5419 9.57518 11.088 9.02933L13.1473 6.97067C13.6934 6.42459 14.0002 5.68394 14.0002 4.91167C14.0002 4.13939 13.6934 3.39875 13.1473 2.85267C12.6013 2.30659 11.8606 1.9998 11.0883 1.9998C10.3161 1.9998 9.57542 2.30659 9.02934 2.85267L8.00001 3.882" stroke="white" stroke-width="2" stroke-linecap="round" stroke-linejoin="round"/>
</svg>
