<svg width="24" height="24" viewBox="0 0 24 24" fill="none" xmlns="http://www.w3.org/2000/svg">
<path fill-rule="evenodd" clip-rule="evenodd" d="M18.1841 16.3832C19.7672 14.3423 20.5133 11.7748 20.2706 9.20327C20.0279 6.6317 18.8147 4.24919 16.8777 2.54042C14.9407 0.831642 12.4255 -0.0750259 9.84375 0.00486438C7.262 0.0847547 4.80765 1.1452 2.98003 2.97047C1.1508 4.797 0.0868904 7.2523 0.00509107 9.83601C-0.0767083 12.4197 0.829764 14.9374 2.53978 16.876C4.2498 18.8146 6.63467 20.0282 9.20839 20.2694C11.7821 20.5107 14.351 19.7615 16.3915 18.1746L16.4461 18.2317L21.8315 23.6184C21.9495 23.7363 22.0895 23.8299 22.2436 23.8938C22.3978 23.9576 22.5629 23.9904 22.7297 23.9904C22.8966 23.9904 23.0617 23.9576 23.2159 23.8938C23.37 23.8299 23.51 23.7363 23.628 23.6184C23.7459 23.5004 23.8395 23.3604 23.9033 23.2063C23.9671 23.0522 24 22.887 24 22.7202C24 22.5534 23.9671 22.3882 23.9033 22.2341C23.8395 22.08 23.7459 21.9399 23.628 21.822L18.2413 16.4366C18.2227 16.4183 18.2037 16.4005 18.1841 16.3832V16.3832ZM15.5485 4.76688C16.2653 5.47209 16.8354 6.31223 17.2259 7.23886C17.6163 8.16549 17.8195 9.16025 17.8236 10.1658C17.8277 11.1713 17.6326 12.1677 17.2497 13.0975C16.8668 14.0273 16.3036 14.872 15.5926 15.583C14.8816 16.2941 14.0368 16.8573 13.107 17.2402C12.1773 17.6231 11.1809 17.8181 10.1753 17.814C9.16981 17.8099 8.17504 17.6068 7.24842 17.2163C6.32179 16.8258 5.48164 16.2558 4.77644 15.539C3.36713 14.1065 2.58095 12.1753 2.58913 10.1658C2.59731 8.15632 3.3992 6.23148 4.82012 4.81056C6.24104 3.38964 8.16587 2.58776 10.1753 2.57957C12.1848 2.57139 14.1161 3.35758 15.5485 4.76688Z" fill="#0A3B5C"/>
</svg>
