<svg width="36" height="35" viewBox="0 0 36 35" fill="none" xmlns="http://www.w3.org/2000/svg">
<path fill-rule="evenodd" clip-rule="evenodd" d="M1.54828 4.13876C1.54828 3.42787 1.83112 2.7461 2.33458 2.24342C2.83805 1.74075 3.52089 1.45835 4.23289 1.45835H30.9943C31.3471 1.45777 31.6966 1.52669 32.0228 1.66115C32.3489 1.79562 32.6453 1.99299 32.8949 2.24196C33.1445 2.49094 33.3426 2.78663 33.4776 3.11211C33.6126 3.43759 33.682 3.78647 33.6818 4.13876V30.8583C33.6822 31.2107 33.613 31.5597 33.4782 31.8853C33.3433 32.211 33.1455 32.5069 32.896 32.7561C32.6466 33.0053 32.3503 33.203 32.0242 33.3378C31.6982 33.4726 31.3487 33.5419 30.9957 33.5417H4.23289C3.88022 33.5417 3.531 33.4723 3.2052 33.3375C2.87939 33.2027 2.58338 33.0051 2.33407 32.7561C2.08476 32.507 1.88704 32.2114 1.75221 31.886C1.61739 31.5606 1.54809 31.2119 1.54828 30.8598V4.13876ZM14.2673 13.6908H18.6185V15.8725C19.2466 14.6183 20.8532 13.4896 23.2676 13.4896C27.8963 13.4896 28.9932 15.9877 28.9932 20.5713V29.0617H24.3091V21.6154C24.3091 19.005 23.681 17.5321 22.086 17.5321C19.8732 17.5321 18.953 19.1202 18.953 21.6154V29.0617H14.2673V13.6908ZM6.23393 28.8619H10.9196V13.4896H6.23393V28.8604V28.8619ZM11.59 8.47585C11.5988 8.87641 11.5275 9.2747 11.38 9.64735C11.2326 10.02 11.0121 10.3595 10.7315 10.6459C10.4509 10.9323 10.1158 11.1599 9.74592 11.3152C9.37603 11.4706 8.97878 11.5506 8.57749 11.5506C8.1762 11.5506 7.77896 11.4706 7.40907 11.3152C7.03917 11.1599 6.70409 10.9323 6.42348 10.6459C6.14286 10.3595 5.92237 10.02 5.77495 9.64735C5.62753 9.2747 5.55614 8.87641 5.56497 8.47585C5.58231 7.68959 5.90732 6.94138 6.47039 6.39143C7.03345 5.84149 7.78982 5.53354 8.57749 5.53354C9.36517 5.53354 10.1215 5.84149 10.6846 6.39143C11.2477 6.94138 11.5727 7.68959 11.59 8.47585V8.47585Z" fill="#47A8EA"/>
</svg>
