<svg width="10" height="10" viewBox="0 0 10 10" fill="none" xmlns="http://www.w3.org/2000/svg">
<path d="M6.76201 2.84678L9.48306 3.24822C9.70839 3.28041 9.89775 3.43947 9.9697 3.65723C10.0417 3.87688 9.98296 4.11547 9.82011 4.27831L7.84702 6.21354L8.31284 8.9895C8.35071 9.21673 8.25792 9.44774 8.06857 9.58218C7.8811 9.71663 7.63305 9.73367 7.43043 9.62574L4.9991 8.32865L2.56966 9.62574C2.36516 9.73367 2.1171 9.71663 1.92964 9.58218C1.74217 9.44774 1.64749 9.21673 1.68726 8.9895L2.15308 6.21354L0.179605 4.27831C0.0165696 4.11547 -0.0413734 3.87688 0.0302032 3.65723C0.101591 3.43947 0.290379 3.28041 0.517417 3.24822L3.23619 2.84678L4.45565 0.341031C4.55601 0.132436 4.76809 0 4.9991 0C5.23201 0 5.44409 0.132436 5.54445 0.341031L6.76201 2.84678V2.84678Z" fill="white"/>
</svg>
