<svg width="10" height="10" viewBox="0 0 10 10" fill="none" xmlns="http://www.w3.org/2000/svg">
<path d="M5 6.25C5.69036 6.25 6.25 5.69036 6.25 5C6.25 4.30964 5.69036 3.75 5 3.75C4.30964 3.75 3.75 4.30964 3.75 5C3.75 5.69036 4.30964 6.25 5 6.25Z" fill="white"/>
<path d="M9.66875 4.89375C9.3012 3.94302 8.66312 3.12082 7.83337 2.52878C7.00363 1.93674 6.01859 1.6008 5 1.5625C3.98141 1.6008 2.99637 1.93674 2.16662 2.52878C1.33688 3.12082 0.698797 3.94302 0.331247 4.89375C0.306424 4.96241 0.306424 5.03759 0.331247 5.10625C0.698797 6.05698 1.33688 6.87918 2.16662 7.47122C2.99637 8.06326 3.98141 8.3992 5 8.4375C6.01859 8.3992 7.00363 8.06326 7.83337 7.47122C8.66312 6.87918 9.3012 6.05698 9.66875 5.10625C9.69357 5.03759 9.69357 4.96241 9.66875 4.89375V4.89375ZM5 7.03125C4.59825 7.03125 4.20553 6.91212 3.8715 6.68892C3.53746 6.46573 3.27711 6.14849 3.12337 5.77733C2.96963 5.40616 2.9294 4.99775 3.00778 4.60372C3.08615 4.2097 3.27961 3.84776 3.56369 3.56369C3.84776 3.27961 4.2097 3.08616 4.60372 3.00778C4.99774 2.9294 5.40616 2.96963 5.77732 3.12337C6.14849 3.27711 6.46572 3.53746 6.68892 3.8715C6.91212 4.20554 7.03125 4.59826 7.03125 5C7.03042 5.53847 6.81615 6.05464 6.4354 6.4354C6.05464 6.81615 5.53846 7.03042 5 7.03125V7.03125Z" fill="white"/>
</svg>
