<svg width="36" height="35" viewBox="0 0 36 35" fill="none" xmlns="http://www.w3.org/2000/svg">
<path d="M17.698 11.6642C14.4796 11.6642 11.8531 14.2866 11.8531 17.5C11.8531 20.7134 14.4796 23.3358 17.698 23.3358C20.9164 23.3358 23.5428 20.7134 23.5428 17.5C23.5428 14.2866 20.9164 11.6642 17.698 11.6642ZM35.2281 17.5C35.2281 15.0834 35.25 12.6886 35.1141 10.2764C34.9782 7.47448 34.338 4.9878 32.286 2.93891C30.2295 0.885649 27.7434 0.250846 24.9372 0.115129C22.5168 -0.0205877 20.1183 0.0013022 17.7024 0.0013022C15.282 0.0013022 12.8835 -0.0205877 10.4676 0.115129C7.66133 0.250846 5.1708 0.890028 3.11875 2.93891C1.06231 4.99217 0.426527 7.47448 0.2906 10.2764C0.154673 12.693 0.176597 15.0877 0.176597 17.5C0.176597 19.9123 0.154673 22.3114 0.2906 24.7236C0.426527 27.5255 1.0667 30.0122 3.11875 32.0611C5.17519 34.1144 7.66133 34.7492 10.4676 34.8849C12.8879 35.0206 15.2864 34.9987 17.7024 34.9987C20.1227 34.9987 22.5212 35.0206 24.9372 34.8849C27.7434 34.7492 30.2339 34.11 32.286 32.0611C34.3424 30.0078 34.9782 27.5255 35.1141 24.7236C35.2544 22.3114 35.2281 19.9166 35.2281 17.5V17.5ZM17.698 26.4792C12.7213 26.4792 8.70489 22.469 8.70489 17.5C8.70489 12.531 12.7213 8.52081 17.698 8.52081C22.6746 8.52081 26.691 12.531 26.691 17.5C26.691 22.469 22.6746 26.4792 17.698 26.4792ZM27.0594 10.2501C25.8974 10.2501 24.9591 9.31322 24.9591 8.15306C24.9591 6.9929 25.8974 6.05602 27.0594 6.05602C28.2213 6.05602 29.1596 6.9929 29.1596 8.15306C29.16 8.42854 29.1059 8.70139 29.0005 8.95597C28.895 9.21055 28.7404 9.44187 28.5453 9.63666C28.3502 9.83146 28.1185 9.98592 27.8635 10.0912C27.6085 10.1964 27.3353 10.2504 27.0594 10.2501V10.2501Z" fill="#47A8EA"/>
</svg>
