<svg width="36" height="35" viewBox="0 0 36 35" fill="none" xmlns="http://www.w3.org/2000/svg">
<g clip-path="url(#clip0_1_10)">
<path fill-rule="evenodd" clip-rule="evenodd" d="M25.4366 20.9738C25.0014 20.7565 22.8674 19.7094 22.4701 19.5636C22.0728 19.4192 21.7836 19.3477 21.493 19.7823C21.2038 20.214 20.3727 21.1911 20.12 21.4798C19.8658 21.77 19.6131 21.805 19.1793 21.5892C18.7455 21.3704 17.3463 20.914 15.6885 19.4382C14.3987 18.289 13.5268 16.87 13.2741 16.4354C13.0214 16.0023 13.2463 15.7675 13.464 15.5517C13.6597 15.3577 13.8978 15.0457 14.1154 14.7934C14.333 14.5396 14.4046 14.3588 14.5492 14.0686C14.6953 13.7798 14.6222 13.5275 14.5127 13.3102C14.4046 13.0929 13.537 10.9594 13.1748 10.0917C12.8227 9.24732 12.4649 9.36253 12.1991 9.34795C11.9449 9.33628 11.6557 9.33336 11.3665 9.33336C11.0773 9.33336 10.607 9.44128 10.2097 9.87586C9.81095 10.309 8.69066 11.3575 8.69066 13.4911C8.69066 15.6232 10.2448 17.6838 10.4624 17.974C10.68 18.2627 13.5224 22.6407 17.8765 24.5175C18.9135 24.9638 19.7212 25.2307 20.3508 25.429C21.3907 25.76 22.3372 25.7134 23.085 25.6011C23.9176 25.4771 25.6528 24.5525 26.015 23.5404C26.3758 22.5284 26.3758 21.6607 26.2677 21.4798C26.1596 21.299 25.8704 21.1911 25.4352 20.9738H25.4366ZM17.5172 31.7698H17.5113C14.9252 31.7703 12.3866 31.0762 10.1615 29.7602L9.63568 29.4482L4.17006 30.8802L5.62921 25.5602L5.28597 25.0148C3.84016 22.717 3.07503 20.0576 3.07898 17.344C3.0819 9.39607 9.55827 2.92982 17.523 2.92982C21.379 2.92982 25.0043 4.4319 27.7298 7.15607C29.0741 8.49275 30.1396 10.0823 30.8647 11.8328C31.5897 13.5833 31.9599 15.4599 31.9539 17.3542C31.951 25.3021 25.4746 31.7698 17.5172 31.7698V31.7698ZM29.8039 5.0867C28.1945 3.46929 26.2797 2.18685 24.1704 1.3137C22.0611 0.440539 19.7991 -0.00597504 17.5157 2.92413e-05C7.94283 2.92413e-05 0.148983 7.78024 0.146062 17.3425C0.144601 20.3992 0.943558 23.3829 2.46406 26.0123L0 35L9.20772 32.5879C11.7548 33.9735 14.6092 34.6995 17.5099 34.6996H17.5172C27.09 34.6996 34.8839 26.9194 34.8868 17.3557C34.8939 15.0767 34.4483 12.8189 33.5758 10.713C32.7033 8.60706 31.4213 6.69476 29.8039 5.0867" fill="#47A8EA"/>
</g>
<defs>
<clipPath id="clip0_1_10">
<rect width="35.0548" height="35" fill="white"/>
</clipPath>
</defs>
</svg>
